<svg width="61" height="61" viewBox="0 0 61 61" fill="none" xmlns="http://www.w3.org/2000/svg">
<path d="M17.3776 45.0013L14.5701 13.5H45.4301L42.6188 44.9963L29.9813 48.5L17.3776 45.0013Z" fill="#1572B6"/>
<path d="M30 45.8225L40.2125 42.9913L42.615 16.0763H30V45.8225Z" fill="#33A9DC"/>
<path d="M30 27.4887H35.1125L35.465 23.5325H30V19.6687H39.6875L39.595 20.705L38.6462 31.3525H30V27.4887Z" fill="white"/>
<path d="M30.0238 37.5224L30.0063 37.5274L25.7038 36.3649L25.4288 33.2837H21.55L22.0913 39.3499L30.005 41.5474L30.0238 41.5424V37.5224Z" fill="#EBEBEB"/>
<path d="M34.7838 31.1887L34.3188 36.3625L30.01 37.525V41.545L37.93 39.35L37.9888 38.6975L38.66 31.1887H34.7838Z" fill="white"/>
<path d="M30.0137 19.6687V23.5325H20.6812L20.6037 22.6637L20.4275 20.705L20.335 19.6687H30.0137ZM30 27.4887V31.3525H25.7512L25.6737 30.4837L25.4987 28.525L25.4062 27.4887H30Z" fill="#EBEBEB"/>
<circle cx="30.5" cy="30.5" r="30" stroke="#CACACA"/>
</svg>
