

<svg width="20" height="20" viewBox="0 0 20 20" fill="none" xmlns="http://www.w3.org/2000/svg">
<path d="M3 7.25C2.4561 7.25 1.92442 7.41129 1.47218 7.71346C1.01995 8.01563 0.667473 8.44512 0.459333 8.94762C0.251192 9.45012 0.196732 10.0031 0.302842 10.5365C0.408951 11.0699 0.670863 11.56 1.05546 11.9445C1.44005 12.3291 1.93005 12.5911 2.4635 12.6972C2.99695 12.8033 3.54988 12.7488 4.05238 12.5407C4.55488 12.3325 4.98437 11.9801 5.28654 11.5278C5.58872 11.0756 5.75 10.5439 5.75 10C5.75 9.27066 5.46027 8.57118 4.94455 8.05546C4.42882 7.53973 3.72935 7.25 3 7.25ZM3 11.25C2.75277 11.25 2.5111 11.1767 2.30554 11.0393C2.09998 10.902 1.93976 10.7068 1.84515 10.4784C1.75054 10.2499 1.72579 9.99861 1.77402 9.75614C1.82225 9.51366 1.9413 9.29093 2.11612 9.11612C2.29093 8.9413 2.51366 8.82225 2.75614 8.77402C2.99861 8.72579 3.24995 8.75054 3.47836 8.84515C3.70676 8.93976 3.90199 9.09998 4.03934 9.30554C4.17669 9.5111 4.25 9.75277 4.25 10C4.25 10.3315 4.11831 10.6495 3.88388 10.8839C3.64946 11.1183 3.33152 11.25 3 11.25ZM10 7.25C9.4561 7.25 8.92442 7.41129 8.47218 7.71346C8.01995 8.01563 7.66747 8.44512 7.45933 8.94762C7.25119 9.45012 7.19673 10.0031 7.30284 10.5365C7.40895 11.0699 7.67086 11.56 8.05546 11.9445C8.44005 12.3291 8.93006 12.5911 9.4635 12.6972C9.99695 12.8033 10.5499 12.7488 11.0524 12.5407C11.5549 12.3325 11.9844 11.9801 12.2865 11.5278C12.5887 11.0756 12.75 10.5439 12.75 10C12.75 9.27066 12.4603 8.57118 11.9445 8.05546C11.4288 7.53973 10.7293 7.25 10 7.25ZM10 11.25C9.75277 11.25 9.5111 11.1767 9.30554 11.0393C9.09998 10.902 8.93976 10.7068 8.84515 10.4784C8.75054 10.2499 8.72579 9.99861 8.77402 9.75614C8.82225 9.51366 8.9413 9.29093 9.11612 9.11612C9.29093 8.9413 9.51366 8.82225 9.75614 8.77402C9.99861 8.72579 10.2499 8.75054 10.4784 8.84515C10.7068 8.93976 10.902 9.09998 11.0393 9.30554C11.1767 9.5111 11.25 9.75277 11.25 10C11.25 10.3315 11.1183 10.6495 10.8839 10.8839C10.6495 11.1183 10.3315 11.25 10 11.25ZM17 5.75C17.5439 5.75 18.0756 5.58872 18.5278 5.28654C18.9801 4.98437 19.3325 4.55488 19.5407 4.05238C19.7488 3.54988 19.8033 2.99695 19.6972 2.4635C19.5911 1.93005 19.3291 1.44005 18.9445 1.05546C18.56 0.670863 18.0699 0.408951 17.5365 0.302842C17.0031 0.196732 16.4501 0.251192 15.9476 0.459333C15.4451 0.667473 15.0156 1.01995 14.7135 1.47218C14.4113 1.92442 14.25 2.4561 14.25 3C14.25 3.72935 14.5397 4.42882 15.0555 4.94455C15.5712 5.46027 16.2707 5.75 17 5.75ZM17 1.75C17.2472 1.75 17.4889 1.82331 17.6945 1.96066C17.9 2.09802 18.0602 2.29324 18.1549 2.52165C18.2495 2.75005 18.2742 3.00139 18.226 3.24386C18.1778 3.48634 18.0587 3.70907 17.8839 3.88388C17.7091 4.0587 17.4863 4.17775 17.2439 4.22598C17.0014 4.27421 16.7501 4.24946 16.5216 4.15485C16.2932 4.06024 16.098 3.90003 15.9607 3.69446C15.8233 3.4889 15.75 3.24723 15.75 3C15.75 2.66848 15.8817 2.35054 16.1161 2.11612C16.3505 1.8817 16.6685 1.75 17 1.75ZM17 7.25C16.4561 7.25 15.9244 7.41129 15.4722 7.71346C15.0199 8.01563 14.6675 8.44512 14.4593 8.94762C14.2512 9.45012 14.1967 10.0031 14.3028 10.5365C14.409 11.0699 14.6709 11.56 15.0555 11.9445C15.4401 12.3291 15.9301 12.5911 16.4635 12.6972C16.997 12.8033 17.5499 12.7488 18.0524 12.5407C18.5549 12.3325 18.9844 11.9801 19.2865 11.5278C19.5887 11.0756 19.75 10.5439 19.75 10C19.75 9.27066 19.4603 8.57118 18.9445 8.05546C18.4288 7.53973 17.7293 7.25 17 7.25ZM17 11.25C16.7528 11.25 16.5111 11.1767 16.3055 11.0393C16.1 10.902 15.9398 10.7068 15.8452 10.4784C15.7505 10.2499 15.7258 9.99861 15.774 9.75614C15.8223 9.51366 15.9413 9.29093 16.1161 9.11612C16.2909 8.9413 16.5137 8.82225 16.7561 8.77402C16.9986 8.72579 17.2499 8.75054 17.4784 8.84515C17.7068 8.93976 17.902 9.09998 18.0393 9.30554C18.1767 9.5111 18.25 9.75277 18.25 10C18.25 10.3315 18.1183 10.6495 17.8839 10.8839C17.6495 11.1183 17.3315 11.25 17 11.25ZM3 0.250001C2.4561 0.250001 1.92442 0.411286 1.47218 0.71346C1.01995 1.01563 0.667473 1.44513 0.459333 1.94762C0.251192 2.45012 0.196732 3.00305 0.302842 3.5365C0.408951 4.06995 0.670863 4.55995 1.05546 4.94455C1.44005 5.32914 1.93005 5.59105 2.4635 5.69716C2.99695 5.80327 3.54988 5.74881 4.05238 5.54067C4.55488 5.33253 4.98437 4.98005 5.28654 4.52782C5.58872 4.07558 5.75 3.5439 5.75 3C5.75 2.27066 5.46027 1.57118 4.94455 1.05546C4.42882 0.539733 3.72935 0.250001 3 0.250001ZM3 4.25C2.75277 4.25 2.5111 4.17669 2.30554 4.03934C2.09998 3.90199 1.93976 3.70676 1.84515 3.47836C1.75054 3.24995 1.72579 2.99861 1.77402 2.75614C1.82225 2.51366 1.9413 2.29093 2.11612 2.11612C2.29093 1.9413 2.51366 1.82225 2.75614 1.77402C2.99861 1.72579 3.24995 1.75054 3.47836 1.84515C3.70676 1.93976 3.90199 2.09998 4.03934 2.30554C4.17669 2.5111 4.25 2.75277 4.25 3C4.25 3.33152 4.11831 3.64946 3.88388 3.88388C3.64946 4.11831 3.33152 4.25 3 4.25ZM10 14.25C9.4561 14.25 8.92442 14.4113 8.47218 14.7135C8.01995 15.0156 7.66747 15.4451 7.45933 15.9476C7.25119 16.4501 7.19673 17.0031 7.30284 17.5365C7.40895 18.0699 7.67086 18.56 8.05546 18.9445C8.44005 19.3291 8.93006 19.5911 9.4635 19.6972C9.99695 19.8033 10.5499 19.7488 11.0524 19.5407C11.5549 19.3325 11.9844 18.9801 12.2865 18.5278C12.5887 18.0756 12.75 17.5439 12.75 17C12.75 16.2707 12.4603 15.5712 11.9445 15.0555C11.4288 14.5397 10.7293 14.25 10 14.25ZM10 18.25C9.75277 18.25 9.5111 18.1767 9.30554 18.0393C9.09998 17.902 8.93976 17.7068 8.84515 17.4784C8.75054 17.2499 8.72579 16.9986 8.77402 16.7561C8.82225 16.5137 8.9413 16.2909 9.11612 16.1161C9.29093 15.9413 9.51366 15.8223 9.75614 15.774C9.99861 15.7258 10.2499 15.7505 10.4784 15.8452C10.7068 15.9398 10.902 16.1 11.0393 16.3055C11.1767 16.5111 11.25 16.7528 11.25 17C11.25 17.3315 11.1183 17.6495 10.8839 17.8839C10.6495 18.1183 10.3315 18.25 10 18.25ZM10 0.250001C9.4561 0.250001 8.92442 0.411286 8.47218 0.71346C8.01995 1.01563 7.66747 1.44513 7.45933 1.94762C7.25119 2.45012 7.19673 3.00305 7.30284 3.5365C7.40895 4.06995 7.67086 4.55995 8.05546 4.94455C8.44005 5.32914 8.93006 5.59105 9.4635 5.69716C9.99695 5.80327 10.5499 5.74881 11.0524 5.54067C11.5549 5.33253 11.9844 4.98005 12.2865 4.52782C12.5887 4.07558 12.75 3.5439 12.75 3C12.75 2.27066 12.4603 1.57118 11.9445 1.05546C11.4288 0.539733 10.7293 0.250001 10 0.250001ZM10 4.25C9.75277 4.25 9.5111 4.17669 9.30554 4.03934C9.09998 3.90199 8.93976 3.70676 8.84515 3.47836C8.75054 3.24995 8.72579 2.99861 8.77402 2.75614C8.82225 2.51366 8.9413 2.29093 9.11612 2.11612C9.29093 1.9413 9.51366 1.82225 9.75614 1.77402C9.99861 1.72579 10.2499 1.75054 10.4784 1.84515C10.7068 1.93976 10.902 2.09998 11.0393 2.30554C11.1767 2.5111 11.25 2.75277 11.25 3C11.25 3.33152 11.1183 3.64946 10.8839 3.88388C10.6495 4.11831 10.3315 4.25 10 4.25Z" fill="black"/>
</svg>
