<svg width="61" height="61" viewBox="0 0 61 61" fill="none" xmlns="http://www.w3.org/2000/svg">
<circle cx="30.5" cy="30.5" r="30" stroke="#CACACA"/>
<path d="M50.206 28.861L31.867 7.9056C31.6159 7.6185 31.3178 7.39075 30.9896 7.23536C30.6615 7.07998 30.3098 7 29.9546 7C29.5994 7 29.2477 7.07998 28.9196 7.23536C28.5914 7.39075 28.2933 7.6185 28.0422 7.9056L24.2358 12.2557L29.066 17.7758C29.6357 17.5535 30.2485 17.5187 30.8347 17.6754C31.4208 17.8321 31.9566 18.174 32.3808 18.662C32.8051 19.15 33.1008 19.7644 33.2341 20.4353C33.3675 21.1061 33.3331 21.8063 33.1349 22.4559L37.7893 27.7779C38.4779 27.5009 39.2285 27.5 39.9176 27.7756C40.6066 28.0511 41.1931 28.5866 41.5803 29.2939C41.9675 30.0011 42.1324 30.838 42.0479 31.6667C41.9634 32.4954 41.6345 33.2665 41.1153 33.8531C40.5897 34.4574 39.8968 34.8344 39.155 34.9198C38.4132 35.0052 37.6684 34.7935 37.048 34.321C36.4275 33.8486 35.9698 33.1446 35.7531 32.3293C35.5364 31.514 35.5741 30.638 35.8598 29.851L31.5205 24.8889V37.9481C32.1801 38.3212 32.7078 38.9414 33.0158 39.7053C33.3238 40.4692 33.3933 41.3307 33.2129 42.1461C33.0325 42.9615 32.613 43.6816 32.0243 44.1864C31.4356 44.6912 30.7134 44.9502 29.9779 44.9202C29.2424 44.8902 28.5381 44.573 27.9824 44.0215C27.4268 43.47 27.0533 42.7175 26.9242 41.8894C26.7951 41.0614 26.9183 40.2078 27.2732 39.471C27.6281 38.7341 28.1932 38.1585 28.8744 37.8401V24.6609C28.4814 24.4769 28.1241 24.2057 27.8232 23.8632C27.5223 23.5206 27.2837 23.1133 27.1212 22.6649C26.9587 22.2165 26.8755 21.7357 26.8763 21.2503C26.8771 20.7649 26.962 20.2845 27.126 19.8368L22.3667 14.3947L9.79242 28.765C9.5412 29.0519 9.34191 29.3926 9.20595 29.7676C9.06998 30.1426 9 30.5446 9 30.9505C9 31.3564 9.06998 31.7584 9.20595 32.1334C9.34191 32.5084 9.5412 32.8491 9.79242 33.136L28.1315 54.0944C28.3826 54.3815 28.6807 54.6093 29.0088 54.7646C29.337 54.92 29.6887 55 30.0439 55C30.399 55 30.7508 54.92 31.0789 54.7646C31.407 54.6093 31.7052 54.3815 31.9563 54.0944L50.2087 33.235C50.7154 32.6551 51 31.8691 51 31.0495C51 30.2299 50.7154 29.4439 50.2087 28.864" fill="#F03C2E"/>
</svg>
