<svg width="30" height="30" viewBox="0 0 30 30" fill="none" xmlns="http://www.w3.org/2000/svg">
<path d="M10.852 1.17463C11.0905 1.10749 11.347 1.07177 11.6245 1.07177C13.2684 1.07177 14.2434 2.35747 14.2434 3.57174V8.81882C14.7294 8.65699 15.2404 8.57394 15.7553 8.57311C17.8522 8.57168 19.4991 10.0431 19.4991 12.1431C19.4993 12.3134 19.4567 12.4813 19.3751 12.6329C19.2934 12.7844 19.175 12.9152 19.0297 13.0145L16.4528 14.7702L15.0218 15.9587C14.064 16.7544 13.2036 17.6505 12.457 18.6301L11.557 19.8087C11.1747 20.31 10.6734 20.7181 10.0939 20.9996C9.51437 21.2812 8.87317 21.4282 8.22264 21.4287H5.75975C5.06157 21.434 4.3743 21.2636 3.76747 20.9347C3.16063 20.6059 2.65575 20.1302 2.3039 19.5558C1.7666 18.6748 1.27746 17.7679 0.838463 16.8387C0.410982 15.9087 0 14.8202 0 13.9288V5.35744C0 4.13745 0.986956 2.85747 2.62488 2.85747C2.78988 2.85747 2.94887 2.87175 3.09886 2.89461C3.38835 1.92176 4.28831 1.07177 5.62475 1.07177C5.89774 1.07177 6.15573 1.10891 6.39572 1.17606C6.62647 0.811241 6.95385 0.510594 7.34504 0.304248C7.73624 0.0979022 8.1775 -0.00689575 8.62462 0.000356669C9.07137 -0.00693553 9.51228 0.0977045 9.9032 0.303795C10.2941 0.509885 10.6213 0.81019 10.852 1.17463ZM8.35463 2.24319C8.28889 2.31319 8.25211 2.40356 8.25113 2.49747V8.92882C8.25113 9.21298 8.13261 9.4855 7.92165 9.68643C7.71068 9.88736 7.42454 10.0002 7.12618 10.0002C6.82783 10.0002 6.54169 9.88736 6.33072 9.68643C6.11976 9.4855 6.00123 9.21298 6.00123 8.92882V3.49746C5.99265 3.43155 5.96217 3.36998 5.91424 3.32175C5.87717 3.28519 5.83225 3.25669 5.78254 3.2382C5.73284 3.2197 5.67952 3.21166 5.62625 3.2146C5.48376 3.2146 5.40576 3.26175 5.35626 3.3146C5.28966 3.38534 5.25234 3.47673 5.25127 3.57174V9.6431C5.25127 9.92726 5.13275 10.1998 4.92178 10.4007C4.71081 10.6016 4.42467 10.7145 4.12632 10.7145C3.82796 10.7145 3.54183 10.6016 3.33086 10.4007C3.11989 10.1998 3.00137 9.92726 3.00137 9.6431V5.35744C3.0003 5.26243 2.96298 5.17103 2.89637 5.1003C2.84537 5.04744 2.76738 5.0003 2.62638 5.0003C2.48539 5.0003 2.40739 5.04744 2.3564 5.1003C2.28979 5.17103 2.25247 5.26243 2.2514 5.35744V13.9288C2.2514 14.3288 2.47489 15.0502 2.90087 15.9759C3.30585 16.8544 3.82333 17.7687 4.25831 18.4887C4.5523 18.9773 5.11927 19.2858 5.76425 19.2858H8.21964C8.81961 19.2858 9.38358 19.0116 9.73607 18.5487L10.633 17.3716C11.4796 16.2609 12.4552 15.245 13.5414 14.343L15.0143 13.1216C15.0413 13.099 15.0693 13.0775 15.0983 13.0573L17.1727 11.6431C16.9867 11.0602 16.4588 10.7145 15.7538 10.7145C14.7983 10.7145 14.1189 11.2859 13.8909 11.4788L13.8459 11.5159C13.6823 11.6485 13.4823 11.7337 13.2695 11.7614C13.0568 11.7892 12.8401 11.7583 12.6451 11.6725C12.4502 11.5868 12.2851 11.4496 12.1693 11.2773C12.0536 11.105 11.992 10.9048 11.992 10.7002V3.57174C11.9909 3.47631 11.9536 3.38449 11.887 3.31317C11.839 3.26032 11.764 3.2146 11.623 3.2146C11.4805 3.2146 11.4025 3.26175 11.353 3.3146C11.2863 3.38527 11.2489 3.47671 11.248 3.57174V8.92882C11.248 9.21298 11.1295 9.4855 10.9185 9.68643C10.7075 9.88736 10.4214 10.0002 10.1231 10.0002C9.8247 10.0002 9.53856 9.88736 9.32759 9.68643C9.11662 9.4855 8.9981 9.21298 8.9981 8.92882V2.49747C8.99672 2.40337 8.95939 2.31298 8.89311 2.24319C8.84211 2.19033 8.76411 2.14319 8.62312 2.14319C8.48213 2.14319 8.40413 2.19033 8.35313 2.24319H8.35463ZM16.4993 20.0001C16.8971 20.0001 17.2786 19.8496 17.5599 19.5817C17.8412 19.3138 17.9992 18.9504 17.9992 18.5716C17.9992 18.1927 17.8412 17.8293 17.5599 17.5614C17.2786 17.2935 16.8971 17.143 16.4993 17.143C16.1015 17.143 15.7199 17.2935 15.4387 17.5614C15.1574 17.8293 14.9993 18.1927 14.9993 18.5716C14.9993 18.9504 15.1574 19.3138 15.4387 19.5817C15.7199 19.8496 16.1015 20.0001 16.4993 20.0001ZM22.499 20.0001C22.8968 20.0001 23.2783 19.8496 23.5596 19.5817C23.8409 19.3138 23.9989 18.9504 23.9989 18.5716C23.9989 18.1927 23.8409 17.8293 23.5596 17.5614C23.2783 17.2935 22.8968 17.143 22.499 17.143C22.1012 17.143 21.7197 17.2935 21.4384 17.5614C21.1571 17.8293 20.9991 18.1927 20.9991 18.5716C20.9991 18.9504 21.1571 19.3138 21.4384 19.5817C21.7197 19.8496 22.1012 20.0001 22.499 20.0001ZM19.4991 30C17.2156 29.9998 14.9944 29.2909 13.1718 27.9806C11.3493 26.6704 10.0246 24.8302 9.39858 22.7387C10.1489 22.5856 10.8584 22.2881 11.4835 21.8644C11.8356 23.2369 12.5699 24.4937 13.6089 25.5022C14.6479 26.5107 15.9533 27.2337 17.3875 27.5951C18.8217 27.9565 20.3316 27.9428 21.7584 27.5556C23.1851 27.1683 24.4758 26.4218 25.4945 25.3947C26.5132 24.3675 27.2223 23.0977 27.547 21.7191C27.8717 20.3404 27.8 18.9038 27.3395 17.5607C26.8791 16.2175 26.0468 15.0175 24.9305 14.0869C23.8141 13.1564 22.4549 12.5298 20.9961 12.2731L20.9991 12.1431C20.9991 11.3817 20.8386 10.6759 20.5491 10.0502C23.2295 10.3065 25.704 11.5342 27.4606 13.4793C29.2172 15.4245 30.1217 17.9383 29.9868 20.5007C29.852 23.0632 28.6881 25.4783 26.736 27.2464C24.784 29.0145 22.193 30.0003 19.4991 30ZM16.7963 22.4758C16.5894 22.271 16.3056 22.1529 16.0073 22.1474C15.709 22.1419 15.4206 22.2495 15.2056 22.4465C14.9906 22.6435 14.8665 22.9138 14.8608 23.1979C14.855 23.4821 14.968 23.7567 15.1748 23.9615C15.7341 24.5165 16.4056 24.9579 17.1488 25.2591C17.8919 25.5603 18.6915 25.7152 19.4991 25.7143C20.3068 25.7152 21.1063 25.5603 21.8495 25.2591C22.5927 24.9579 23.2641 24.5165 23.8234 23.9615C23.9259 23.8601 24.0063 23.7405 24.0602 23.6095C24.1141 23.4785 24.1404 23.3386 24.1375 23.1979C24.1347 23.0573 24.1027 22.9185 24.0436 22.7896C23.9844 22.6606 23.8992 22.5441 23.7927 22.4465C23.6862 22.349 23.5606 22.2723 23.4231 22.221C23.2855 22.1697 23.1387 22.1447 22.991 22.1474C22.8433 22.1501 22.6976 22.1805 22.5622 22.2369C22.4268 22.2932 22.3044 22.3744 22.202 22.4758C21.8526 22.823 21.433 23.099 20.9684 23.2874C20.5039 23.4757 20.004 23.5724 19.4991 23.5715C18.9942 23.5724 18.4944 23.4757 18.0298 23.2874C17.5653 23.099 17.1456 22.823 16.7963 22.4758Z" fill="#343434"/>
</svg>
