<svg width="61" height="61" viewBox="0 0 61 61" fill="none" xmlns="http://www.w3.org/2000/svg">
<circle cx="30.5" cy="30.5" r="30" stroke="#CACACA"/>
<path d="M19.3511 12H21.0943V13.7223H22.6893V12H24.4325V17.2136H22.6893V15.4687H21.0943V17.2136H19.3527V12H19.3511ZM26.7235 13.7287H25.1897V12H30.0021V13.7287H28.4667V17.2136H26.7235V13.7287ZM30.7658 12H32.5831L33.7012 13.8318L34.8177 12H36.6351V17.2136H34.8999V14.6293L33.7012 16.4837H33.6706L32.4704 14.6309V17.2136H30.7658V12ZM37.5019 12H39.2467V15.4913H41.6956V17.2152H37.5019V12Z" fill="#F16529"/>
<path fill-rule="evenodd" clip-rule="evenodd" d="M19.2963 47.5607L16 19.5999H45L41.7021 47.5575L30.4839 50.6669L19.2963 47.5607ZM25.9615 32.2551L25.6489 28.7429H38.7714L39.0776 25.3145H21.9031L22.8279 35.6852H34.7131L34.3151 40.1319L30.4903 41.1662H30.4871L26.6688 40.1351L26.4239 37.401H22.9793L23.4594 42.7854L30.4839 44.7348L37.5196 42.7854L38.3767 33.1767L38.4605 32.2567H25.9615V32.2551Z" fill="#F16529"/>
</svg>
