<svg width="61" height="61" viewBox="0 0 61 61" fill="none" xmlns="http://www.w3.org/2000/svg">
<path fill-rule="evenodd" clip-rule="evenodd" d="M14 14H47V47H14V14ZM39.2271 41.665C37.6968 41.665 36.8319 40.8675 36.1677 39.7812L33.6474 41.2456C34.5576 43.0441 36.418 44.4164 39.2986 44.4164C42.2439 44.4164 44.437 42.8874 44.437 40.0948C44.437 37.5056 42.9493 36.3547 40.3148 35.2231L39.5392 34.8918C38.2083 34.3143 37.6321 33.9389 37.6321 33.008C37.6321 32.2559 38.2096 31.6798 39.1171 31.6798C40.0068 31.6798 40.5801 32.0551 41.1123 33.008L43.5268 31.4584C42.5051 29.6612 41.0889 28.9751 39.1171 28.9751C36.3479 28.9751 34.5755 30.7461 34.5755 33.0726C34.5755 35.5958 36.0605 36.7906 38.299 37.7435L39.0745 38.0763C40.4894 38.695 41.3323 39.0718 41.3323 40.1346C41.3323 41.0229 40.5114 41.665 39.2271 41.665ZM27.2096 41.6444C26.144 41.6444 25.6999 40.9156 25.2131 40.0494L22.6886 41.5784C23.4201 43.1266 24.8584 44.4109 27.3403 44.4109C30.0889 44.4109 31.9712 42.9492 31.9712 39.7386V29.1511H28.8706V39.6974C28.8706 41.247 28.2271 41.6444 27.2083 41.6444H27.2096Z" fill="#F0DB4F"/>
<circle cx="30.5" cy="30.5" r="30" stroke="#CACACA"/>
</svg>
