<svg width="61" height="61" viewBox="0 0 61 61" fill="none" xmlns="http://www.w3.org/2000/svg">
<circle cx="30.5" cy="30.5" r="30" stroke="#CACACA"/>
<path d="M28.69 11.0102C28.6033 11.0185 28.33 11.0469 28.0833 11.0652C22.4033 11.5784 17.0833 14.6429 13.71 19.3538C11.8472 21.9395 10.6362 24.9367 10.18 28.0906C10.02 29.1904 10 29.5137 10 31.0034C10 32.4932 10.02 32.8181 10.18 33.9163C11.2667 41.4266 16.6133 47.7356 23.8617 50.0735C25.16 50.4918 26.5283 50.7767 28.0833 50.95C28.69 51.0167 31.31 51.0167 31.9167 50.95C34.6017 50.6517 36.8783 49.9868 39.1217 48.842C39.4667 48.6671 39.5333 48.6187 39.4867 48.5804C38.3893 47.1335 37.3032 45.6782 36.2283 44.2145L33.03 39.8936L29.0233 33.9629C27.6902 31.9793 26.3446 30.004 24.9867 28.0373C24.9717 28.0323 24.9567 30.6668 24.9483 33.8863C24.9367 39.5186 24.9317 39.7453 24.8617 39.8786C24.7934 40.0342 24.6716 40.1601 24.5183 40.2335C24.3933 40.2968 24.285 40.3085 23.6933 40.3085H23.0167L22.8367 40.1952C22.7253 40.1249 22.6349 40.0259 22.575 39.9086L22.4917 39.7336L22.5 31.8949L22.5117 24.053L22.6333 23.8997C22.7152 23.8038 22.8134 23.7231 22.9233 23.6614C23.0833 23.583 23.145 23.5764 23.8233 23.5764C24.62 23.5764 24.7533 23.6064 24.96 23.833C25.0183 23.8963 27.1883 27.1658 29.785 31.1018L37.675 43.053L40.8417 47.8489L41.0033 47.7439C42.5273 46.7309 43.909 45.5187 45.1117 44.1395C47.6319 41.2555 49.2667 37.7059 49.82 33.9163C49.98 32.8165 50 32.4932 50 31.0034C50 29.5137 49.98 29.1904 49.82 28.0906C48.7333 20.5819 43.3867 14.2713 36.1383 11.9334C34.7836 11.5027 33.3887 11.2107 31.975 11.0619C31.5983 11.0219 29.015 10.9785 28.6917 11.0119L28.69 11.0102ZM36.8783 23.1081C36.9713 23.1549 37.054 23.2197 37.1218 23.2986C37.1896 23.3775 37.2411 23.4691 37.2733 23.568C37.3033 23.668 37.3117 25.8427 37.3033 30.7418L37.2917 37.7706L36.0533 35.8709L34.81 33.9713V28.8621C34.81 25.5577 34.825 23.7014 34.8483 23.6114C34.8761 23.5073 34.9246 23.4099 34.9911 23.3251C35.0576 23.2403 35.1405 23.1699 35.235 23.1181C35.3967 23.0348 35.455 23.0281 36.0683 23.0281C36.6467 23.0281 36.7483 23.0365 36.8783 23.1065V23.1081Z" fill="black"/>
</svg>
