<svg width="61" height="61" viewBox="0 0 61 61" fill="none" xmlns="http://www.w3.org/2000/svg">
<path d="M30 34.2471C31.8122 34.2471 33.2812 32.778 33.2812 30.9658C33.2812 29.1536 31.8122 27.6846 30 27.6846C28.1878 27.6846 26.7188 29.1536 26.7188 30.9658C26.7188 32.778 28.1878 34.2471 30 34.2471Z" fill="#00D8FF"/>
<path d="M30 38.4892C26.0561 38.5846 22.1221 38.0529 18.345 36.9142C16.6002 36.3611 14.9728 35.4898 13.5452 34.3443C13.0004 33.953 12.5467 33.4484 12.2153 32.8653C11.8838 32.2822 11.6825 31.6342 11.625 30.9659C11.625 28.7964 14.0085 26.6701 18.0011 25.2789C21.8792 24.0461 25.9311 23.4486 30 23.5096C34.0145 23.4535 38.0122 24.0402 41.8414 25.2474C43.5217 25.7831 45.0939 26.6123 46.485 27.6965C47.0205 28.0695 47.4673 28.5558 47.794 29.1208C48.1206 29.6858 48.3189 30.3157 48.375 30.9659C48.375 33.2208 45.7106 35.5059 41.4188 36.926C37.7148 38.0277 33.8638 38.5548 30 38.4892ZM30 25.0794C26.1073 25.0273 22.2311 25.5953 18.5169 26.762C14.8419 28.0443 13.1948 29.7978 13.1948 30.962C13.1948 32.18 14.9653 34.0949 18.8529 35.4245C22.4663 36.5084 26.2287 37.013 30 36.9194C33.6965 36.9855 37.3814 36.4854 40.9266 35.4363C44.9625 34.0989 46.8 32.1813 46.8 30.9659C46.7338 30.5488 46.5818 30.15 46.3536 29.7947C46.1254 29.4393 45.8261 29.1351 45.4744 28.9014C44.2298 27.9395 42.8254 27.2046 41.3256 26.7305C37.6624 25.5804 33.839 25.023 30 25.0794Z" fill="#00D8FF"/>
<path d="M22.545 47.3315C21.9327 47.3455 21.3276 47.197 20.7915 46.901C18.912 45.8169 18.261 42.6905 19.0498 38.5364C19.9195 34.561 21.4265 30.7524 23.5123 27.2581C25.4689 23.7526 27.9737 20.5826 30.9319 17.8685C32.2354 16.6803 33.7391 15.7325 35.3734 15.0689C35.9645 14.7919 36.6093 14.6483 37.262 14.6483C37.9148 14.6483 38.5596 14.7919 39.1507 15.0689C41.105 16.1951 41.7521 19.6443 40.8399 24.0714C39.9433 27.8311 38.4755 31.4311 36.4877 34.7459C34.5999 38.2101 32.174 41.3524 29.3004 44.0555C27.9496 45.2903 26.3819 46.2644 24.6765 46.9286C23.9937 47.182 23.2731 47.3182 22.545 47.3315ZM24.872 28.0377C22.8824 31.3837 21.4381 35.0251 20.5933 38.8252C19.8675 42.6511 20.5644 44.9519 21.5777 45.5373C22.6277 46.145 25.1765 45.5688 28.2714 42.8651C31.0146 40.2754 33.3301 37.2675 35.1319 33.9532C37.0362 30.7842 38.4442 27.3423 39.3069 23.7472C40.1653 19.58 39.4237 17.0285 38.3711 16.4221C37.9766 16.271 37.555 16.2033 37.133 16.2234C36.711 16.2435 36.2977 16.3509 35.9194 16.5389C34.4647 17.1392 33.1273 17.9914 31.9687 19.0563C29.1425 21.6561 26.7498 24.6908 24.8812 28.0456L24.872 28.0377Z" fill="#00D8FF"/>
<path d="M37.4511 47.3485C35.6726 47.3485 33.4138 46.2722 31.0618 44.2497C28.0519 41.5108 25.5047 38.3032 23.5189 34.7511C21.4592 31.3049 19.9642 27.5514 19.0905 23.6329C18.7116 21.9089 18.6414 20.1314 18.8831 18.3829C18.939 17.7343 19.1365 17.1058 19.4617 16.5418C19.7869 15.9778 20.2319 15.492 20.7652 15.1187C22.7169 13.9887 26.0284 15.1502 29.4081 18.1506C32.2176 20.8047 34.6034 23.874 36.4824 27.2515C38.5408 30.6172 40.0515 34.2885 40.9581 38.1282C41.3533 39.9154 41.4142 41.7604 41.1379 43.5698C41.0721 44.2371 40.8628 44.8822 40.5244 45.4611C40.1859 46.0399 39.7263 46.5387 39.177 46.9232C38.6496 47.2155 38.0539 47.3623 37.4511 47.3485ZM24.8773 33.961C26.7823 37.3557 29.2155 40.4255 32.0856 43.0553C35.0374 45.595 37.3789 46.141 38.3856 45.549C39.4356 44.9387 40.2099 42.4476 39.4119 38.4169C38.5376 34.751 37.0887 31.2466 35.1187 28.0337C33.3257 24.8012 31.0483 21.8622 28.3659 19.3187C25.1844 16.4942 22.6041 15.8629 21.5527 16.4719C21.2251 16.7382 20.9562 17.0695 20.763 17.445C20.5699 17.8204 20.4567 18.2319 20.4306 18.6533C20.2219 20.2126 20.2899 21.7966 20.6314 23.3323C21.4718 27.0797 22.9056 30.6687 24.8786 33.9636L24.8773 33.961Z" fill="#00D8FF"/>
<circle cx="30.5" cy="30.5" r="30" stroke="#CACACA"/>
</svg>
