<svg width="61" height="61" viewBox="0 0 61 61" fill="none" xmlns="http://www.w3.org/2000/svg">
<path d="M38.024 38.5389C39.4621 38.3869 40.5541 37.113 40.5054 35.5848C40.481 34.8502 40.1782 34.1537 39.6603 33.641C39.1424 33.1282 38.4495 32.839 37.7266 32.8339H37.6259C36.087 32.8835 34.8959 34.2085 34.9446 35.788C34.9966 36.553 35.294 37.2138 35.7409 37.6715C34.0525 41.0865 31.472 43.5813 27.5997 45.6697C24.9705 47.0971 22.2405 47.606 19.5121 47.2491C17.2777 46.9435 15.5406 45.9241 14.4486 44.2438C12.861 41.749 12.7131 39.0477 14.0521 36.3481C14.9946 34.4134 16.4847 32.9859 17.4272 32.2738C17.1716 31.4185 16.9563 30.5512 16.7821 29.675C9.58504 35.0247 10.3309 42.2579 12.5116 45.6713C14.1496 48.219 17.4744 49.7984 21.1485 49.7984C22.1515 49.8053 23.1515 49.6855 24.1255 49.4416C30.4792 48.1694 35.2924 44.2967 38.0224 38.5405L38.024 38.5389ZM46.7583 32.2226C42.9867 27.689 37.4276 25.1926 31.0755 25.1926H30.2809C30.0546 24.734 29.7075 24.3483 29.2783 24.0784C28.8491 23.8086 28.3546 23.6652 27.8499 23.6643H27.7492C26.2119 23.7156 25.0192 25.0406 25.0696 26.6201C25.1183 28.1483 26.3598 29.3693 27.8483 29.3693H27.9491C28.4732 29.3417 28.9792 29.1647 29.4091 28.8585C29.839 28.5523 30.1755 28.1293 30.38 27.6378H31.2738C35.0454 27.6378 38.6187 28.758 41.8444 30.9488C44.3257 32.6307 46.1132 34.8198 47.1045 37.4699C47.9494 39.6078 47.9007 41.6962 47.007 43.4805C45.616 46.1802 43.2841 47.6572 40.2064 47.6572C38.2222 47.6572 36.3356 47.0459 35.3428 46.5866C34.6284 47.2346 33.8832 47.8466 33.11 48.4205C35.2436 49.4399 37.4276 50 39.5125 50C44.277 50 47.7999 47.3004 49.1406 44.6007C50.5787 41.6466 50.4796 36.553 46.7583 32.2226ZM21.5466 39.4046C21.5953 40.9329 22.8368 42.1555 24.3253 42.1555H24.4245C25.9633 42.1059 27.1544 40.7809 27.1057 39.2014C27.0814 38.4668 26.7786 37.7703 26.2606 37.2576C25.7427 36.7448 25.0498 36.4557 24.327 36.4505H24.2262C24.1082 36.4426 23.9898 36.4595 23.8785 36.5001C21.844 33.0371 21.0006 29.2685 21.298 25.1926C21.4962 22.1361 22.4891 19.4877 24.2262 17.2969C25.6659 15.4134 28.4447 14.4964 30.3313 14.4452C35.5914 14.3428 37.8241 21.0671 37.9736 23.7668C38.6187 23.9188 39.7107 24.2757 40.455 24.5301C39.8586 16.2791 34.8975 12 30.1314 12C25.6659 12 21.5466 15.311 19.9086 20.2014C17.6255 26.7209 19.114 32.9859 21.8943 37.9276C21.6457 38.2844 21.4962 38.8445 21.5466 39.4046Z" fill="#7045B5"/>
<path fill-rule="evenodd" clip-rule="evenodd" d="M30.5 60C46.7924 60 60 46.7924 60 30.5C60 14.2076 46.7924 1 30.5 1C14.2076 1 1 14.2076 1 30.5C1 46.7924 14.2076 60 30.5 60ZM30.5 61C47.3447 61 61 47.3447 61 30.5C61 13.6553 47.3447 0 30.5 0C13.6553 0 0 13.6553 0 30.5C0 47.3447 13.6553 61 30.5 61Z" fill="#CACACA"/>
</svg>
