<svg width="61" height="61" viewBox="0 0 61 61" fill="none" xmlns="http://www.w3.org/2000/svg">
<circle cx="30.5" cy="30.5" r="30" stroke="#CACACA"/>
<path d="M32.2783 39.1924C32.2582 39.2324 32.238 39.2644 32.2783 39.1924V39.1924ZM49.0144 33.3929C47.6628 33.3929 46.3299 33.6995 45.118 34.2928C44.7216 33.4995 44.3118 32.8063 44.2446 32.2863C44.164 31.6797 44.0766 31.3197 44.1707 30.5998C44.2648 29.8798 44.688 28.8599 44.6813 28.7866C44.6746 28.7133 44.5872 28.3466 43.7206 28.34C42.854 28.3333 42.1082 28.5066 42.0209 28.7333C41.8676 29.1474 41.7485 29.5732 41.6649 30.0065C41.5103 30.7864 39.9329 33.5729 39.0394 35.0261C38.7438 34.4595 38.4953 33.9595 38.4415 33.5595C38.3609 32.9529 38.2736 32.593 38.3676 31.873C38.4617 31.1531 38.8849 30.1332 38.8782 30.0598C38.8715 29.9865 38.7841 29.6199 37.9188 29.6132C37.0536 29.6065 36.3065 29.7798 36.2192 30.0065C36.1318 30.2331 36.0378 30.7664 35.8631 31.2797C35.6884 31.793 33.5857 36.4326 33.0361 37.6392C32.754 38.2525 32.5121 38.7458 32.3375 39.0791C32.3106 39.1324 32.2904 39.1658 32.277 39.1924C32.2972 39.1591 32.3106 39.1258 32.3106 39.1391C32.1628 39.4257 32.0755 39.5857 32.0755 39.5857V39.5924C31.9612 39.8057 31.8336 39.999 31.7731 39.999C31.7328 39.999 31.6455 39.4391 31.7933 38.6725C32.109 37.0593 32.8548 34.5528 32.848 34.4661C32.8413 34.4195 32.9891 33.9862 32.3576 33.7529C31.7463 33.5329 31.5246 33.8995 31.4708 33.8995C31.4171 33.8995 31.3768 34.0328 31.3768 34.0328C31.3768 34.0328 32.0553 31.2064 30.0735 31.2064C28.8373 31.2064 27.1175 32.553 26.2724 33.7729C25.7416 34.0595 24.5928 34.6794 23.3836 35.3394L21.9929 36.0993C21.9594 36.066 21.9325 36.0327 21.8989 35.9993C19.4938 33.4529 15.0545 31.653 15.2426 28.2333C15.3098 26.9867 15.7465 23.7137 23.78 19.7407C30.3637 16.4876 35.6266 17.3809 36.5336 19.3674C37.8369 22.2005 33.7187 27.4734 26.8824 28.2333C24.2758 28.5199 22.9066 27.52 22.564 27.1467C22.2079 26.7534 22.1542 26.7334 22.0198 26.8068C21.7981 26.9267 21.9392 27.2734 22.0198 27.48C22.2214 28.0067 23.0611 28.9399 24.4921 29.4065C25.7484 29.8132 28.8037 30.0398 32.4974 28.6199C36.6478 27.0334 39.8792 22.6138 38.9306 18.9141C37.9659 15.1544 31.6831 13.9211 25.743 16.0143C22.2026 17.2609 18.3746 19.2207 15.6215 21.7738C12.3498 24.8136 11.8271 27.46 12.0421 28.5666C12.808 32.493 18.2617 35.0528 20.4438 36.9459L20.1414 37.1126C19.0464 37.6525 14.8892 39.8124 13.8479 42.0922C12.6723 44.6786 14.0428 46.5318 14.9416 46.7851C17.7498 47.5584 20.6238 46.1652 22.169 43.8787C23.7141 41.5922 23.526 38.6058 22.8139 37.2459C22.8072 37.2259 22.7937 37.2126 22.787 37.1926C23.5932 36.7188 24.4061 36.2566 25.2257 35.806C24.957 36.526 24.7621 37.3926 24.6614 38.6458C24.5404 40.1123 25.1518 42.0122 25.9445 42.7588C26.2939 43.0854 26.7158 43.0921 26.9791 43.0921C27.9062 43.0921 28.3227 42.3322 28.7863 41.4256C29.3573 40.319 29.8612 39.0324 29.8612 39.0324C29.8612 39.0324 29.2297 42.5121 30.9562 42.5121C31.5877 42.5121 32.2192 41.7055 32.5014 41.2922V41.2989C32.5014 41.2989 32.5148 41.2722 32.5484 41.2189C32.6156 41.1189 32.6492 41.0589 32.6492 41.0589V41.0389C32.9045 40.6056 33.4621 39.6124 34.3018 37.9725C35.3902 35.8527 36.4301 33.2062 36.4301 33.2062C36.5309 33.7875 36.6706 34.3621 36.8466 34.9261C37.0347 35.5594 37.4311 36.2527 37.7469 36.9259C37.4916 37.2726 37.3371 37.4726 37.3371 37.4726C37.3371 37.4779 37.3397 37.4819 37.3438 37.4859C37.1422 37.7525 36.9138 38.0392 36.6787 38.3192C35.8201 39.3324 34.7976 40.4923 34.6633 40.8256C34.502 41.2189 34.5423 41.5122 34.8514 41.7389C35.0798 41.9122 35.4829 41.9389 35.9061 41.9055C36.6787 41.8522 37.2229 41.6655 37.4849 41.5456C37.9681 41.3737 38.4249 41.1359 38.8419 40.8389C39.6817 40.2257 40.1923 39.3457 40.1452 38.1858C40.1184 37.5459 39.9101 36.9059 39.6548 36.306C39.7287 36.1993 39.8093 36.086 39.8832 35.9727C40.7575 34.6783 41.5452 33.3284 42.2413 31.9317C42.342 32.513 42.4804 33.0876 42.6578 33.6515C42.819 34.1915 43.1348 34.7848 43.4236 35.3647C42.1741 36.3713 41.4015 37.5379 41.1341 38.3045C40.637 39.7244 41.0266 40.3643 41.7589 40.511C42.0881 40.5776 42.5584 40.4243 42.9077 40.2777C43.4263 40.1057 43.9154 39.8564 44.3575 39.5377C45.1972 38.9244 46.0101 38.0645 45.955 36.8979C45.9349 36.3713 45.7871 35.8447 45.5923 35.3381C46.647 34.8981 48.0175 34.6581 49.7642 34.8581C53.5048 35.2914 54.2371 37.6112 54.096 38.5778C53.9549 39.5444 53.1689 40.0843 52.9069 40.2443C52.6449 40.4043 52.5643 40.4643 52.5844 40.5843C52.618 40.7576 52.739 40.751 52.9607 40.711C53.2697 40.6576 54.9223 39.9244 54.9962 38.1312C55.1037 35.8647 52.9069 33.3716 49.0171 33.3916L49.0144 33.3929ZM20.1817 43.0388C18.9456 44.3787 17.2137 44.8853 16.468 44.4587C15.6685 43.9974 15.9843 42.0255 17.5079 40.5976C18.435 39.731 19.6309 38.9311 20.4236 38.4378C20.605 38.3312 20.867 38.1712 21.1895 37.9778C21.2157 37.9612 21.2426 37.9456 21.2701 37.9312C21.3305 37.8912 21.3977 37.8579 21.4649 37.8179C22.0212 39.8444 21.4851 41.6309 20.1817 43.0374V43.0388ZM29.2082 36.9459C28.7782 37.9925 27.8726 40.659 27.3204 40.519C26.8501 40.399 26.5612 38.3658 27.2263 36.366C27.5622 35.3594 28.2744 34.1595 28.6976 33.6929C29.3761 32.9396 30.1218 32.6996 30.2965 32.9996C30.5316 33.3929 29.4769 36.2927 29.2082 36.9459ZM36.6653 40.479C36.4839 40.5723 36.3159 40.6323 36.2353 40.5856C36.1748 40.5523 36.3092 40.4256 36.3092 40.4256C36.3092 40.4256 37.243 39.4324 37.6125 38.9791C37.8275 38.7125 38.0761 38.3991 38.3448 38.0525C38.3448 38.0858 38.3515 38.1192 38.3515 38.1592C38.3434 39.3524 37.1879 40.159 36.6639 40.479H36.6653ZM42.4159 39.1791C42.2816 39.0858 42.3017 38.7724 42.7518 37.7992C42.9265 37.4192 43.3296 36.7793 44.0283 36.166C44.1076 36.398 44.1505 36.6406 44.1559 36.8859C44.1492 38.3858 43.0676 38.9458 42.4159 39.1791Z" fill="#CB6699"/>
</svg>
