<svg width="61" height="61" viewBox="0 0 61 61" fill="none" xmlns="http://www.w3.org/2000/svg">
<circle cx="30.5" cy="30.5" r="30" stroke="#CACACA"/>
<path d="M30 18C24.4 18 20.9 20.7778 19.5 26.3333C21.6 23.5556 24.05 22.5139 26.85 23.2083C28.4478 23.6042 29.5887 24.7535 30.854 26.0278C32.9137 28.1007 35.2955 30.5 40.5 30.5C46.1 30.5 49.6 27.7222 51 22.1667C48.9 24.9444 46.45 25.9861 43.65 25.2917C42.0523 24.8958 40.9113 23.7465 39.646 22.4722C37.588 20.3993 35.2062 18 30 18ZM19.5 30.5C13.9 30.5 10.4 33.2778 9 38.8333C11.1 36.0556 13.55 35.0139 16.35 35.7083C17.9478 36.1042 19.0887 37.2535 20.354 38.5278C22.4137 40.6007 24.7955 43 30 43C35.6 43 39.1 40.2222 40.5 34.6667C38.4 37.4444 35.95 38.4861 33.15 37.7917C31.5522 37.3958 30.4112 36.2465 29.146 34.9722C27.088 32.8993 24.7063 30.5 19.5 30.5Z" fill="#45AAB3"/>
</svg>
